<?xml version="1.0" standalone="no"?>
<!DOCTYPE svg PUBLIC "-//W3C//DTD SVG 20010904//EN"
 "http://www.w3.org/TR/2001/REC-SVG-20010904/DTD/svg10.dtd">
<svg version="1.0" xmlns="http://www.w3.org/2000/svg"
 width="4852.000000pt" height="4535.000000pt" viewBox="0 0 4852.000000 4535.000000"
 preserveAspectRatio="xMidYMid meet">

<g transform="translate(0.000000,4535.000000) scale(0.100000,-0.100000)"
fill="#000000" stroke="none">
<path d="M17256 35444 c-220 -49 -414 -200 -511 -398 -64 -129 -79 -197 -79
-341 1 -141 17 -213 75 -331 95 -194 266 -334 479 -393 101 -28 276 -29 382
-2 238 61 434 238 518 469 149 409 -73 849 -495 982 -93 29 -271 36 -369 14z"/>
<path d="M25060 33507 c-126 -38 -214 -91 -315 -192 -141 -140 -212 -296 -222
-490 -13 -230 70 -433 243 -594 85 -79 211 -148 324 -178 89 -23 272 -23 365
1 265 68 479 281 546 544 29 114 26 274 -6 386 -31 106 -68 182 -129 261 -94
122 -244 222 -396 264 -108 30 -305 29 -410 -2z"/>
<path d="M12571 33024 c-79 -66 -53 -216 42 -242 40 -11 94 -4 126 17 48 31
67 132 36 191 -33 64 -147 82 -204 34z"/>
<path d="M31934 31840 c-296 -77 -517 -332 -554 -638 -39 -318 127 -623 415
-762 308 -149 646 -87 879 161 84 89 153 213 183 329 23 88 22 281 -1 370 -69
261 -283 474 -544 541 -101 26 -279 25 -378 -1z"/>
<path d="M26914 31331 c-41 -25 -68 -91 -59 -148 16 -109 158 -150 235 -68 31
33 39 118 16 164 -35 66 -128 91 -192 52z"/>
<path d="M38574 30346 c-238 -55 -421 -201 -528 -425 -53 -111 -69 -199 -64
-344 9 -213 68 -348 223 -502 76 -77 105 -98 185 -138 122 -60 196 -77 340
-77 144 0 218 17 340 77 80 40 109 61 185 138 103 103 144 168 188 292 40 114
49 278 22 400 -58 266 -256 480 -520 563 -90 28 -281 36 -371 16z"/>
<path d="M15204 29560 c-359 -94 -594 -438 -554 -810 34 -324 274 -588 592
-654 261 -54 517 28 702 225 156 166 229 396 196 614 -30 197 -134 378 -283
491 -76 58 -202 118 -288 139 -91 21 -275 19 -365 -5z"/>
<path d="M37713 27805 c-45 -19 -73 -69 -73 -128 0 -97 51 -143 149 -135 47 4
59 10 82 37 65 78 37 196 -54 230 -37 14 -65 13 -104 -4z"/>
<path d="M23095 27645 c-282 -63 -486 -260 -572 -550 -24 -83 -24 -285 1 -375
57 -212 208 -394 401 -486 119 -57 219 -77 359 -72 212 9 347 69 501 223 77
76 98 105 138 185 65 132 80 204 75 365 -4 106 -9 145 -31 210 -83 251 -300
446 -558 500 -86 18 -233 18 -314 0z"/>
<path d="M29978 25980 c-289 -52 -526 -274 -599 -557 -26 -104 -26 -262 1
-369 54 -215 197 -392 395 -489 118 -58 193 -75 336 -75 96 0 133 5 205 26
486 139 697 710 419 1134 -100 153 -255 264 -440 317 -61 17 -253 25 -317 13z"/>
<path d="M16157 25820 c-41 -12 -58 -29 -79 -78 -21 -46 -18 -82 8 -134 41
-80 188 -77 231 5 21 40 20 119 -1 152 -32 49 -102 73 -159 55z"/>
<path d="M35463 24639 c-67 -19 -105 -99 -84 -177 19 -68 69 -99 151 -92 65 5
110 61 110 135 0 97 -84 161 -177 134z"/>
<path d="M36528 24465 c-176 -43 -352 -171 -453 -330 -200 -313 -133 -745 153
-981 76 -62 201 -127 292 -151 103 -28 303 -25 400 5 264 83 456 283 522 545
17 67 19 102 16 206 -8 217 -67 350 -224 507 -77 78 -105 99 -185 138 -52 25
-123 52 -159 60 -81 20 -284 20 -362 1z"/>
<path d="M12780 23291 c-251 -67 -442 -251 -527 -506 -23 -70 -27 -97 -27
-215 -1 -101 4 -151 17 -200 71 -259 278 -465 537 -536 102 -28 302 -26 400 4
331 104 540 383 540 722 0 132 -23 232 -82 350 -34 69 -61 103 -138 181 -83
84 -108 102 -190 142 -52 25 -125 52 -161 61 -90 22 -283 21 -369 -3z"/>
<path d="M10331 21842 c-52 -26 -73 -61 -73 -121 1 -86 51 -141 127 -141 85 0
138 54 138 142 1 105 -100 168 -192 120z"/>
<path d="M20647 21369 c-205 -50 -390 -198 -487 -389 -64 -127 -75 -176 -75
-340 0 -164 11 -213 76 -340 73 -145 191 -263 331 -332 111 -55 170 -69 303
-75 152 -6 238 11 360 71 199 99 330 252 397 466 19 63 23 96 23 210 0 153
-18 230 -82 351 -157 302 -513 460 -846 378z"/>
<path d="M22222 20420 c-61 -37 -80 -141 -37 -206 23 -35 79 -57 128 -50 51 8
82 30 101 71 46 97 -16 205 -119 205 -23 0 -54 -9 -73 -20z"/>
<path d="M27527 19704 c-156 -34 -278 -105 -391 -225 -84 -89 -153 -212 -183
-329 -23 -88 -22 -281 1 -370 55 -207 195 -380 388 -480 110 -58 207 -80 343
-80 137 0 233 22 343 80 192 99 325 266 383 477 26 96 29 265 5 365 -60 257
-258 465 -521 548 -93 29 -271 36 -368 14z"/>
<path d="M17395 18998 c-50 -39 -69 -121 -41 -176 21 -41 50 -63 96 -73 142
-32 221 158 104 250 -38 30 -121 29 -159 -1z"/>
<path d="M34172 18209 c-181 -28 -371 -140 -478 -282 -235 -314 -208 -728 65
-997 186 -182 430 -255 679 -204 156 32 275 98 388 217 112 117 167 218 198
369 81 392 -166 786 -554 882 -84 20 -218 27 -298 15z"/>
<path d="M28894 16741 c-94 -43 -99 -188 -9 -247 34 -22 126 -15 156 12 76 67
58 202 -31 238 -51 20 -65 20 -116 -3z"/>
<path d="M10774 16270 c-235 -61 -430 -239 -514 -467 -180 -495 181 -1013 705
-1013 344 0 639 226 731 561 25 88 25 289 0 379 -71 263 -284 474 -544 541
-101 26 -279 25 -378 -1z"/>
<path d="M18665 14355 c-365 -81 -614 -408 -592 -775 7 -119 26 -193 77 -295
130 -263 376 -415 675 -415 183 0 341 55 475 165 260 213 348 587 210 891
-122 270 -395 445 -690 443 -52 0 -122 -7 -155 -14z"/>
<path d="M25548 12690 c-289 -52 -526 -273 -598 -555 -27 -106 -27 -273 -1
-377 104 -407 518 -645 930 -537 151 40 311 150 405 277 91 125 146 290 146
444 0 211 -75 391 -227 540 -101 99 -199 155 -338 195 -61 17 -253 25 -317 13z"/>
<path d="M30565 11477 c-84 -84 -43 -226 70 -243 141 -21 213 165 99 255 -20
16 -41 21 -81 21 -49 0 -59 -4 -88 -33z"/>
<path d="M32090 11171 c-247 -66 -443 -252 -526 -496 -36 -107 -45 -276 -19
-392 21 -98 89 -240 152 -318 100 -123 253 -219 409 -256 126 -30 295 -24 409
15 118 40 209 98 300 190 147 149 205 285 213 499 5 158 -10 231 -76 367 -39
82 -59 109 -141 191 -83 82 -109 102 -191 141 -52 26 -125 54 -161 62 -90 22
-283 20 -369 -3z"/>
<path d="M14864 10931 c-90 -41 -100 -175 -18 -240 19 -15 41 -21 79 -21 38 0
60 6 79 21 81 63 73 195 -15 239 -47 25 -73 25 -125 1z"/>
<path d="M28785 10800 c-48 -10 -71 -27 -89 -64 -32 -69 -15 -155 39 -190 34
-22 118 -23 151 -1 77 50 85 166 16 228 -26 23 -78 35 -117 27z"/>
<path d="M31152 8236 c-61 -33 -82 -137 -42 -203 22 -36 40 -48 92 -57 134
-24 212 160 107 249 -24 20 -41 25 -82 25 -29 -1 -62 -6 -75 -14z"/>
</g>
</svg>
