<?xml version="1.0" standalone="no"?>
<!DOCTYPE svg PUBLIC "-//W3C//DTD SVG 20010904//EN"
 "http://www.w3.org/TR/2001/REC-SVG-20010904/DTD/svg10.dtd">
<svg version="1.0" xmlns="http://www.w3.org/2000/svg"
 width="4852.000000pt" height="4535.000000pt" viewBox="0 0 4852.000000 4535.000000"
 preserveAspectRatio="xMidYMid meet">

<g transform="translate(0.000000,4535.000000) scale(0.100000,-0.100000)"
fill="#000000" stroke="none">
<path d="M17256 35444 c-221 -49 -414 -199 -511 -397 -63 -129 -79 -197 -78
-342 0 -141 16 -213 74 -331 95 -194 266 -334 479 -393 101 -28 276 -29 382
-2 238 61 434 238 518 469 149 409 -73 849 -495 982 -93 29 -271 36 -369 14z"/>
<path d="M25060 33507 c-126 -38 -214 -91 -315 -192 -141 -140 -212 -296 -222
-490 -13 -231 69 -432 243 -594 85 -79 211 -148 324 -178 89 -23 272 -23 365
1 265 68 479 281 546 544 29 114 26 274 -6 386 -31 106 -68 182 -129 261 -94
122 -244 222 -396 264 -108 30 -305 29 -410 -2z"/>
<path d="M12571 33024 c-61 -51 -64 -153 -5 -211 32 -33 54 -39 119 -34 65 6
105 56 105 134 0 92 -46 137 -139 137 -39 0 -56 -6 -80 -26z"/>
<path d="M31934 31840 c-298 -78 -519 -334 -554 -641 -36 -321 127 -620 415
-759 308 -149 646 -87 879 161 84 89 153 213 183 329 23 88 22 281 -1 370 -69
262 -282 474 -544 541 -101 26 -279 25 -378 -1z"/>
<path d="M26914 31332 c-41 -26 -68 -92 -59 -149 16 -109 158 -150 236 -67 21
22 24 35 24 95 0 64 -2 71 -32 100 -41 42 -120 51 -169 21z"/>
<path d="M38575 30346 c-239 -55 -419 -199 -525 -416 -57 -119 -73 -205 -68
-353 9 -213 68 -347 224 -503 77 -78 105 -99 185 -138 121 -58 203 -77 339
-77 138 0 220 19 340 78 80 40 109 61 185 138 103 103 144 168 188 292 40 114
49 278 22 400 -58 266 -256 480 -520 563 -90 28 -281 36 -370 16z"/>
<path d="M15204 29560 c-293 -77 -516 -332 -554 -633 -28 -224 44 -445 197
-608 146 -155 339 -239 548 -239 212 0 400 82 549 241 156 166 229 395 196
614 -47 306 -265 551 -558 626 -101 26 -279 25 -378 -1z"/>
<path d="M37713 27805 c-45 -19 -73 -69 -73 -128 0 -96 51 -143 147 -135 66 6
100 35 114 97 27 122 -78 214 -188 166z"/>
<path d="M23095 27645 c-282 -63 -486 -260 -572 -550 -24 -83 -24 -285 1 -375
127 -467 640 -695 1076 -478 69 34 103 61 181 138 83 82 103 108 142 190 65
134 80 205 75 365 -4 106 -9 145 -31 210 -83 251 -300 446 -558 500 -86 18
-233 18 -314 0z"/>
<path d="M29978 25980 c-289 -52 -526 -274 -599 -557 -24 -95 -25 -255 -3
-356 32 -148 127 -301 254 -410 68 -59 212 -131 305 -153 108 -25 315 -15 415
20 467 164 655 715 385 1126 -100 153 -255 264 -440 317 -61 17 -253 25 -317
13z"/>
<path d="M16145 25816 c-41 -18 -61 -43 -75 -93 -11 -36 -11 -49 5 -89 21 -56
62 -84 123 -84 85 0 135 52 136 141 0 75 -46 127 -121 135 -21 2 -51 -2 -68
-10z"/>
<path d="M35466 24640 c-92 -28 -125 -153 -60 -230 58 -69 180 -56 218 24 36
76 10 166 -58 197 -45 20 -57 21 -100 9z"/>
<path d="M36528 24465 c-271 -66 -495 -299 -553 -576 -80 -378 138 -752 510
-876 71 -24 96 -27 220 -27 120 -1 151 2 215 22 264 83 456 283 522 545 17 67
19 102 16 206 -8 217 -67 350 -224 507 -77 78 -105 99 -185 138 -52 25 -123
52 -159 60 -81 20 -284 20 -362 1z"/>
<path d="M12780 23291 c-256 -69 -450 -259 -532 -521 -30 -98 -33 -299 -5
-400 71 -259 278 -465 537 -536 102 -28 302 -26 400 4 332 104 540 382 540
722 0 132 -23 232 -82 350 -34 69 -61 103 -138 181 -83 84 -108 102 -190 142
-52 25 -125 52 -161 61 -90 22 -283 21 -369 -3z"/>
<path d="M10323 21840 c-46 -28 -66 -64 -66 -120 0 -87 51 -140 134 -140 59 0
98 24 121 76 56 128 -74 255 -189 184z"/>
<path d="M20648 21370 c-254 -63 -463 -264 -544 -525 -26 -85 -27 -324 0 -410
85 -276 318 -488 590 -536 92 -16 273 -6 352 19 244 77 428 264 506 512 19 63
23 96 23 210 0 153 -18 230 -82 351 -157 301 -513 460 -845 379z"/>
<path d="M22222 20420 c-56 -34 -77 -115 -48 -185 36 -86 173 -100 227 -23 68
95 6 228 -106 228 -23 0 -54 -9 -73 -20z"/>
<path d="M27527 19704 c-156 -34 -278 -105 -391 -225 -84 -89 -153 -212 -183
-329 -23 -88 -22 -281 1 -370 55 -207 195 -380 388 -480 110 -58 207 -80 343
-80 137 0 233 22 343 80 191 99 325 266 383 475 26 96 28 268 5 367 -60 257
-258 465 -521 548 -93 29 -271 36 -368 14z"/>
<path d="M17396 18999 c-82 -65 -72 -195 19 -239 51 -25 69 -25 121 -1 90 41
100 175 18 240 -19 15 -41 21 -79 21 -38 0 -60 -6 -79 -21z"/>
<path d="M34172 18209 c-181 -28 -371 -140 -478 -282 -235 -314 -208 -728 65
-997 147 -144 326 -219 524 -220 419 -1 758 338 757 757 -1 340 -240 645 -570
727 -84 20 -218 27 -298 15z"/>
<path d="M28891 16742 c-87 -47 -95 -178 -15 -241 19 -15 41 -21 79 -21 38 0
60 6 79 21 81 63 73 195 -15 239 -48 25 -85 25 -128 2z"/>
<path d="M10774 16270 c-361 -94 -600 -447 -555 -818 22 -181 85 -308 220
-442 78 -77 112 -104 181 -138 116 -58 218 -82 345 -82 344 0 639 226 731 561
25 88 25 289 0 379 -71 263 -284 474 -544 541 -101 26 -279 25 -378 -1z"/>
<path d="M18665 14355 c-83 -19 -139 -40 -210 -80 -251 -142 -399 -411 -382
-695 7 -119 26 -193 77 -295 130 -263 376 -415 675 -415 183 0 341 55 475 165
261 214 348 584 209 893 -92 205 -291 369 -510 422 -98 23 -242 25 -334 5z"/>
<path d="M25530 12686 c-287 -61 -509 -272 -580 -552 -27 -105 -27 -273 -1
-376 76 -297 330 -520 635 -558 222 -27 441 43 601 192 160 149 245 340 245
550 0 211 -75 391 -227 540 -101 99 -199 155 -338 195 -73 20 -257 25 -335 9z"/>
<path d="M30565 11477 c-109 -109 -4 -287 139 -236 59 21 81 57 81 136 0 62
-2 66 -37 99 -34 30 -44 34 -94 34 -50 0 -59 -3 -89 -33z"/>
<path d="M32090 11171 c-247 -66 -443 -252 -526 -496 -36 -107 -45 -276 -19
-392 21 -98 89 -240 152 -318 207 -255 572 -346 876 -219 196 82 358 257 424
459 21 64 27 106 31 208 5 158 -10 231 -76 367 -39 82 -59 109 -141 191 -83
82 -109 102 -191 141 -52 26 -125 54 -161 62 -90 22 -283 20 -369 -3z"/>
<path d="M14883 10943 c-34 -7 -81 -59 -89 -99 -11 -60 2 -106 41 -141 33 -32
55 -38 115 -33 58 4 110 68 110 133 0 100 -76 159 -177 140z"/>
<path d="M28779 10801 c-68 -21 -99 -66 -99 -141 0 -83 51 -134 132 -133 55 1
91 21 118 66 64 104 -37 242 -151 208z"/>
<path d="M31152 8236 c-63 -35 -83 -141 -39 -207 46 -68 152 -75 206 -13 55
62 51 157 -10 208 -24 21 -41 26 -82 26 -29 -1 -62 -6 -75 -14z"/>
</g>
</svg>
